<?xml version="1.0" encoding="utf-8" standalone="no"?>
<!DOCTYPE svg PUBLIC "-//W3C//DTD SVG 1.1//EN"
  "http://www.w3.org/Graphics/SVG/1.1/DTD/svg11.dtd">
<!-- Created with matplotlib (https://matplotlib.org/) -->
<svg height="251.785313pt" version="1.1" viewBox="0 0 368.894188 251.785313" width="368.894188pt" xmlns="http://www.w3.org/2000/svg" xmlns:xlink="http://www.w3.org/1999/xlink">
 <metadata>
  <rdf:RDF xmlns:cc="http://creativecommons.org/ns#" xmlns:dc="http://purl.org/dc/elements/1.1/" xmlns:rdf="http://www.w3.org/1999/02/22-rdf-syntax-ns#">
   <cc:Work>
    <dc:type rdf:resource="http://purl.org/dc/dcmitype/StillImage"/>
    <dc:date>2020-11-15T10:18:06.467375</dc:date>
    <dc:format>image/svg+xml</dc:format>
    <dc:creator>
     <cc:Agent>
      <dc:title>Matplotlib v3.3.2, https://matplotlib.org/</dc:title>
     </cc:Agent>
    </dc:creator>
   </cc:Work>
  </rdf:RDF>
 </metadata>
 <defs>
  <style type="text/css">*{stroke-linecap:butt;stroke-linejoin:round;}</style>
 </defs>
 <g id="figure_1">
  <g id="patch_1">
   <path d="M 0 251.785313 
L 368.894188 251.785313 
L 368.894188 0 
L 0 0 
z
" style="fill:none;"/>
  </g>
  <g id="axes_1">
   <g id="patch_2">
    <path d="M 39.501563 228.263438 
L 307.341563 228.263438 
L 307.341563 10.823438 
L 39.501563 10.823438 
z
" style="fill:#ffffff;"/>
   </g>
   <g id="PathCollection_1">
    <path clip-path="url(#p2227aeef33)" d="M 66.285562 228.263438 
L 79.677563 228.263438 
L 93.069563 228.263438 
L 106.461563 228.263438 
L 119.853563 228.263438 
L 133.245563 228.263438 
L 146.637563 228.263438 
L 150.854757 228.263438 
L 148.503517 217.391437 
L 146.637563 214.418408 
L 140.390609 206.519438 
L 133.245563 200.718889 
L 123.515705 195.647438 
L 119.853563 194.132603 
L 106.461563 192.223801 
L 93.069563 194.132603 
L 89.40742 195.647438 
L 79.677563 200.718889 
L 72.532516 206.519438 
L 66.285562 214.418408 
L 64.419608 217.391437 
L 62.068368 228.263438 
z
" style="fill:#350000;"/>
    <path clip-path="url(#p2227aeef33)" d="M 93.069563 44.954272 
L 106.461563 46.863074 
L 119.853563 44.954272 
L 123.515705 43.439437 
L 133.245563 38.367986 
L 140.390609 32.567438 
L 146.637563 24.668467 
L 148.503517 21.695437 
L 150.854757 10.823438 
L 146.637563 10.823438 
L 133.245563 10.823438 
L 119.853563 10.823438 
L 106.461563 10.823438 
L 93.069563 10.823438 
L 79.677563 10.823438 
L 66.285562 10.823438 
L 62.068368 10.823438 
L 64.419608 21.695437 
L 66.285562 24.668467 
L 72.532516 32.567438 
L 79.677563 38.367986 
L 89.40742 43.439437 
z
" style="fill:#350000;"/>
   </g>
   <g id="PathCollection_2">
    <path clip-path="url(#p2227aeef33)" d="M 52.893563 228.263438 
L 62.068368 228.263438 
L 64.419608 217.391437 
L 66.285562 214.418408 
L 72.532516 206.519438 
L 79.677563 200.718889 
L 89.40742 195.647438 
L 93.069563 194.132603 
L 106.461563 192.223801 
L 119.853563 194.132603 
L 123.515705 195.647438 
L 133.245563 200.718889 
L 140.390609 206.519438 
L 146.637563 214.418408 
L 148.503517 217.391437 
L 150.854757 228.263438 
L 160.029563 228.263438 
L 173.421563 228.263438 
L 171.300478 217.391437 
L 165.144851 206.519438 
L 160.029563 200.718889 
L 155.071952 195.647438 
L 146.637563 188.800164 
L 140.390609 184.775438 
L 133.245563 180.622703 
L 119.853563 175.625393 
L 106.461563 173.903437 
L 93.069563 175.625393 
L 79.677563 180.622703 
L 72.532516 184.775438 
L 66.285562 188.800164 
L 57.851173 195.647438 
L 52.893563 200.718889 
L 47.778274 206.519438 
L 41.622647 217.391437 
L 39.501563 228.263437 
L 39.501563 228.263438 
z
" style="fill:#890000;"/>
    <path clip-path="url(#p2227aeef33)" d="M 79.677563 58.464172 
L 93.069563 63.461482 
L 106.461563 65.183438 
L 119.853563 63.461482 
L 133.245563 58.464172 
L 140.390609 54.311437 
L 146.637563 50.286711 
L 155.071952 43.439437 
L 160.029563 38.367986 
L 165.144851 32.567438 
L 171.300478 21.695437 
L 173.421563 10.823438 
L 160.029563 10.823438 
L 150.854757 10.823438 
L 148.503517 21.695437 
L 146.637563 24.668467 
L 140.390609 32.567438 
L 133.245563 38.367986 
L 123.515705 43.439437 
L 119.853563 44.954272 
L 106.461563 46.863074 
L 93.069563 44.954272 
L 89.40742 43.439437 
L 79.677563 38.367986 
L 72.532516 32.567438 
L 66.285562 24.668467 
L 64.419608 21.695437 
L 62.068368 10.823438 
L 52.893563 10.823438 
L 39.501563 10.823438 
L 39.501563 10.823438 
L 41.622647 21.695437 
L 47.778274 32.567438 
L 52.893563 38.367986 
L 57.851173 43.439437 
L 66.285562 50.286711 
L 72.532516 54.311437 
z
" style="fill:#890000;"/>
   </g>
   <g id="PathCollection_3">
    <path clip-path="url(#p2227aeef33)" d="M 41.622647 217.391437 
L 47.778274 206.519438 
L 52.893563 200.718889 
L 57.851173 195.647438 
L 66.285562 188.800164 
L 72.532516 184.775438 
L 79.677563 180.622703 
L 93.069563 175.625393 
L 106.461563 173.903437 
L 119.853563 175.625393 
L 133.245563 180.622703 
L 140.390609 184.775438 
L 146.637563 188.800164 
L 155.071952 195.647438 
L 160.029563 200.718889 
L 165.144851 206.519438 
L 171.300478 217.391437 
L 173.421563 228.263438 
L 186.813563 228.263438 
L 195.988368 228.263438 
L 193.637127 217.391437 
L 186.813563 206.519438 
L 186.813563 206.519438 
L 177.225949 195.647438 
L 173.421563 192.223801 
L 165.144851 184.775438 
L 160.029563 180.622703 
L 150.854757 173.903437 
L 146.637563 170.81493 
L 133.245563 163.031438 
L 133.245563 163.031438 
L 119.853563 157.491877 
L 106.461563 155.583074 
L 93.069563 157.491877 
L 79.677563 163.031438 
L 79.677563 163.031438 
L 66.285562 170.81493 
L 62.068368 173.903437 
L 52.893562 180.622703 
L 47.778274 184.775438 
L 39.501563 192.223801 
L 39.501563 195.647438 
L 39.501563 206.519438 
L 39.501563 217.391437 
L 39.501563 228.263437 
z
" style="fill:#dd0000;"/>
    <path clip-path="url(#p2227aeef33)" d="M 293.949563 228.263438 
L 307.341563 228.263438 
L 307.341563 217.391437 
L 307.341563 206.519438 
L 307.341563 195.647438 
L 307.341563 192.223801 
L 303.537176 195.647438 
L 293.949563 206.519437 
L 293.949563 206.519438 
L 287.125998 217.391437 
L 284.774757 228.263438 
z
" style="fill:#dd0000;"/>
    <path clip-path="url(#p2227aeef33)" d="M 79.677563 76.055438 
L 93.069563 81.594998 
L 106.461563 83.503801 
L 119.853563 81.594998 
L 133.245563 76.055438 
L 133.245563 76.055437 
L 146.637563 68.271945 
L 150.854757 65.183438 
L 160.029563 58.464172 
L 165.144851 54.311437 
L 173.421563 46.863074 
L 177.225949 43.439437 
L 186.813563 32.567438 
L 186.813563 32.567437 
L 193.637127 21.695437 
L 195.988368 10.823438 
L 186.813563 10.823438 
L 173.421563 10.823438 
L 171.300478 21.695437 
L 165.144851 32.567438 
L 160.029563 38.367986 
L 155.071952 43.439437 
L 146.637563 50.286711 
L 140.390609 54.311437 
L 133.245563 58.464172 
L 119.853563 63.461482 
L 106.461563 65.183438 
L 93.069563 63.461482 
L 79.677563 58.464172 
L 72.532516 54.311437 
L 66.285562 50.286711 
L 57.851173 43.439437 
L 52.893562 38.367986 
L 47.778274 32.567438 
L 41.622647 21.695437 
L 39.501563 10.823438 
L 39.501563 21.695437 
L 39.501563 32.567438 
L 39.501563 43.439437 
L 39.501563 46.863074 
L 47.778274 54.311437 
L 52.893563 58.464172 
L 62.068368 65.183438 
L 66.285562 68.271945 
L 79.677563 76.055437 
z
" style="fill:#dd0000;"/>
    <path clip-path="url(#p2227aeef33)" d="M 307.341563 46.863074 
L 307.341563 43.439437 
L 307.341563 32.567438 
L 307.341563 21.695437 
L 307.341563 10.823438 
L 293.949563 10.823438 
L 284.774757 10.823438 
L 287.125998 21.695437 
L 293.949563 32.567438 
L 293.949563 32.567438 
L 303.537176 43.439437 
z
" style="fill:#dd0000;"/>
   </g>
   <g id="PathCollection_4">
    <path clip-path="url(#p2227aeef33)" d="M 200.205563 228.263438 
L 213.597563 228.263438 
L 226.989563 228.263438 
L 240.381563 228.263438 
L 253.773563 228.263438 
L 267.165563 228.263438 
L 280.557563 228.263438 
L 284.774757 228.263438 
L 287.125998 217.391438 
L 293.949563 206.519438 
L 293.949563 206.519437 
L 303.537176 195.647438 
L 307.341563 192.223801 
L 307.341563 184.775438 
L 307.341563 173.903438 
L 293.949563 184.775438 
L 293.949563 184.775438 
L 280.557563 195.647438 
L 280.557563 195.647438 
L 267.165563 206.519437 
L 267.165563 206.519438 
L 253.773563 217.391437 
L 240.381563 228.263438 
L 226.989563 217.391438 
L 226.989563 217.391437 
L 213.597563 206.519438 
L 213.597563 206.519438 
L 200.205563 195.647438 
L 200.205563 195.647438 
L 186.813563 184.775438 
L 186.813563 184.775438 
L 173.421563 173.903437 
L 173.421563 173.903437 
L 160.029563 163.031438 
L 160.029562 163.031438 
L 146.637563 152.159438 
L 146.637563 152.159437 
L 133.245563 141.287438 
L 133.245563 141.287438 
L 119.853563 130.415438 
L 119.853562 130.415437 
L 106.461563 119.543438 
L 119.853563 108.671437 
L 133.245563 97.799437 
L 133.245563 97.799437 
L 146.637563 86.927437 
L 160.029563 76.055438 
L 160.029563 76.055437 
L 173.421563 65.183438 
L 173.421563 65.183438 
L 186.813563 54.311437 
L 186.813563 54.311437 
L 200.205563 43.439437 
L 200.205563 43.439437 
L 213.597563 32.567438 
L 213.597563 32.567438 
L 226.989563 21.695437 
L 240.381563 10.823438 
L 253.773563 21.695437 
L 253.773563 21.695437 
L 267.165563 32.567438 
L 267.165563 32.567438 
L 280.557563 43.439437 
L 280.557563 43.439437 
L 293.949563 54.311437 
L 293.949563 54.311438 
L 307.341563 65.183437 
L 307.341563 54.311437 
L 307.341563 46.863074 
L 303.537176 43.439437 
L 293.949563 32.567438 
L 293.949563 32.567438 
L 287.125998 21.695437 
L 284.774757 10.823438 
L 280.557563 10.823438 
L 267.165563 10.823438 
L 253.773563 10.823438 
L 240.381563 10.823438 
L 226.989563 10.823438 
L 213.597563 10.823438 
L 200.205563 10.823438 
L 195.988368 10.823438 
L 193.637127 21.695437 
L 186.813563 32.567437 
L 186.813563 32.567438 
L 177.225949 43.439437 
L 173.421563 46.863074 
L 165.144851 54.311437 
L 160.029563 58.464172 
L 150.854757 65.183438 
L 146.637563 68.271945 
L 133.245563 76.055437 
L 133.245563 76.055438 
L 119.853563 81.594998 
L 106.461563 83.503801 
L 93.069563 81.594998 
L 79.677563 76.055438 
L 79.677563 76.055437 
L 66.285562 68.271945 
L 62.068368 65.183438 
L 52.893563 58.464172 
L 47.778274 54.311437 
L 39.501563 46.863074 
L 39.501563 54.311437 
L 39.501563 65.183438 
L 52.893562 76.055437 
L 52.893563 76.055438 
L 66.285562 86.927437 
L 66.285562 86.927438 
L 79.677563 97.799437 
L 79.677563 97.799438 
L 93.069563 108.671437 
L 93.069563 108.671438 
L 106.461563 119.543438 
L 93.069563 130.415437 
L 79.677563 141.287438 
L 66.285562 152.159437 
L 66.285562 152.159438 
L 52.893563 163.031438 
L 52.893563 163.031438 
L 39.501563 173.903437 
L 39.501563 173.903437 
L 39.501563 184.775438 
L 39.501563 192.223801 
L 47.778274 184.775438 
L 52.893562 180.622703 
L 62.068368 173.903437 
L 66.285562 170.81493 
L 79.677563 163.031438 
L 79.677563 163.031438 
L 93.069563 157.491877 
L 106.461563 155.583074 
L 119.853563 157.491877 
L 133.245562 163.031438 
L 133.245563 163.031438 
L 146.637563 170.81493 
L 150.854757 173.903437 
L 160.029563 180.622703 
L 165.144851 184.775438 
L 173.421563 192.223801 
L 177.225949 195.647438 
L 186.813563 206.519438 
L 186.813563 206.519438 
L 193.637127 217.391438 
L 195.988368 228.263438 
z
" style="fill:#ff3200;"/>
   </g>
   <g id="PathCollection_5">
    <path clip-path="url(#p2227aeef33)" d="M 226.989563 217.391438 
L 240.381563 228.263438 
L 253.773563 217.391437 
L 267.165563 206.519438 
L 267.165563 206.519438 
L 280.557563 195.647438 
L 280.557563 195.647438 
L 293.949563 184.775438 
L 293.949563 184.775438 
L 307.341563 173.903438 
L 307.341563 173.903437 
L 307.341563 163.031438 
L 307.341563 155.583074 
L 299.064851 163.031438 
L 293.949563 167.184172 
L 284.774757 173.903437 
L 280.557563 176.991945 
L 267.165563 184.775438 
L 267.165563 184.775438 
L 253.773563 190.314998 
L 240.381563 192.223801 
L 226.989563 190.314998 
L 213.597563 184.775438 
L 213.597563 184.775438 
L 200.205563 176.991945 
L 195.988368 173.903437 
L 186.813563 167.184172 
L 181.698274 163.031438 
L 173.421563 155.583074 
L 169.617176 152.159437 
L 160.029563 141.287438 
L 160.029563 141.287438 
L 153.205998 130.415437 
L 150.854757 119.543438 
L 153.205998 108.671437 
L 160.029563 97.799438 
L 160.029563 97.799437 
L 169.617176 86.927437 
L 173.421563 83.503801 
L 181.698274 76.055437 
L 186.813563 71.902703 
L 195.988368 65.183438 
L 200.205563 62.09493 
L 213.597563 54.311437 
L 213.597563 54.311437 
L 226.989563 48.771877 
L 240.381563 46.863074 
L 253.773563 48.771877 
L 267.165563 54.311437 
L 267.165563 54.311438 
L 280.557563 62.09493 
L 284.774757 65.183438 
L 293.949563 71.902703 
L 299.064851 76.055437 
L 307.341563 83.503801 
L 307.341563 76.055437 
L 307.341563 65.183438 
L 307.341563 65.183437 
L 293.949563 54.311438 
L 293.949563 54.311437 
L 280.557563 43.439437 
L 280.557563 43.439437 
L 267.165563 32.567438 
L 267.165563 32.567438 
L 253.773563 21.695437 
L 253.773563 21.695437 
L 240.381563 10.823438 
L 226.989563 21.695437 
L 213.597563 32.567438 
L 213.597563 32.567438 
L 200.205563 43.439437 
L 200.205563 43.439437 
L 186.813563 54.311437 
L 186.813563 54.311437 
L 173.421563 65.183438 
L 173.421563 65.183438 
L 160.029563 76.055437 
L 160.029563 76.055438 
L 146.637563 86.927437 
L 133.245563 97.799437 
L 133.245563 97.799437 
L 119.853563 108.671437 
L 106.461563 119.543438 
L 119.853562 130.415437 
L 119.853563 130.415438 
L 133.245563 141.287438 
L 133.245563 141.287438 
L 146.637563 152.159437 
L 146.637563 152.159438 
L 160.029562 163.031438 
L 160.029563 163.031438 
L 173.421563 173.903437 
L 173.421563 173.903437 
L 186.813563 184.775438 
L 186.813563 184.775438 
L 200.205563 195.647438 
L 200.205563 195.647438 
L 213.597563 206.519438 
L 213.597563 206.519438 
L 226.989563 217.391437 
z
" style="fill:#ff8600;"/>
    <path clip-path="url(#p2227aeef33)" d="M 52.893563 163.031438 
L 52.893563 163.031438 
L 66.285562 152.159438 
L 66.285563 152.159437 
L 79.677563 141.287438 
L 93.069563 130.415437 
L 106.461563 119.543438 
L 93.069563 108.671438 
L 93.069563 108.671437 
L 79.677563 97.799438 
L 79.677563 97.799437 
L 66.285562 86.927438 
L 66.285562 86.927437 
L 52.893563 76.055438 
L 52.893562 76.055437 
L 39.501563 65.183438 
L 39.501563 76.055437 
L 39.501563 83.503801 
L 43.305949 86.927437 
L 52.893562 97.799437 
L 52.893563 97.799438 
L 59.717127 108.671437 
L 62.068368 119.543438 
L 59.717127 130.415437 
L 52.893563 141.287438 
L 52.893563 141.287438 
L 43.305949 152.159437 
L 39.501563 155.583074 
L 39.501563 163.031438 
L 39.501563 173.903437 
z
" style="fill:#ff8600;"/>
   </g>
   <g id="PathCollection_6">
    <path clip-path="url(#p2227aeef33)" d="M 213.597563 184.775438 
L 226.989563 190.314998 
L 240.381563 192.223801 
L 253.773563 190.314998 
L 267.165563 184.775438 
L 267.165563 184.775438 
L 280.557563 176.991945 
L 284.774757 173.903437 
L 293.949563 167.184172 
L 299.064851 163.031438 
L 307.341563 155.583074 
L 307.341563 152.159437 
L 307.341563 141.287438 
L 307.341563 130.415437 
L 307.341563 119.543438 
L 305.220478 130.415437 
L 299.064851 141.287438 
L 293.949563 147.087986 
L 288.991952 152.159437 
L 280.557563 159.006711 
L 274.310609 163.031438 
L 267.165563 167.184172 
L 253.773563 172.181482 
L 240.381563 173.903437 
L 226.989563 172.181482 
L 213.597563 167.184172 
L 206.452516 163.031438 
L 200.205563 159.006711 
L 191.771173 152.159437 
L 186.813563 147.087986 
L 181.698274 141.287438 
L 175.542647 130.415437 
L 173.421563 119.543438 
L 175.542647 108.671437 
L 181.698274 97.799437 
L 186.813563 91.998889 
L 191.771173 86.927437 
L 200.205563 80.080164 
L 206.452516 76.055437 
L 213.597563 71.902703 
L 226.989563 66.905393 
L 240.381563 65.183438 
L 253.773563 66.905393 
L 267.165563 71.902703 
L 274.310609 76.055437 
L 280.557563 80.080164 
L 288.991952 86.927437 
L 293.949563 91.998889 
L 299.064851 97.799437 
L 305.220478 108.671437 
L 307.341563 119.543437 
L 307.341563 108.671437 
L 307.341563 97.799437 
L 307.341563 86.927437 
L 307.341563 83.503801 
L 299.064851 76.055437 
L 293.949563 71.902703 
L 284.774757 65.183438 
L 280.557563 62.09493 
L 267.165563 54.311438 
L 267.165563 54.311437 
L 253.773563 48.771877 
L 240.381563 46.863074 
L 226.989563 48.771877 
L 213.597563 54.311437 
L 213.597563 54.311437 
L 200.205563 62.09493 
L 195.988368 65.183438 
L 186.813563 71.902703 
L 181.698274 76.055437 
L 173.421563 83.503801 
L 169.617176 86.927437 
L 160.029563 97.799437 
L 160.029563 97.799438 
L 153.205998 108.671437 
L 150.854757 119.543438 
L 153.205998 130.415437 
L 160.029563 141.287438 
L 160.029563 141.287438 
L 169.617176 152.159437 
L 173.421563 155.583074 
L 181.698274 163.031438 
L 186.813563 167.184172 
L 195.988368 173.903437 
L 200.205563 176.991945 
L 213.597563 184.775438 
z
" style="fill:#ffda00;"/>
    <path clip-path="url(#p2227aeef33)" d="M 43.305949 152.159437 
L 52.893563 141.287438 
L 52.893563 141.287438 
L 59.717127 130.415437 
L 62.068368 119.543438 
L 59.717127 108.671437 
L 52.893563 97.799438 
L 52.893562 97.799437 
L 43.305949 86.927437 
L 39.501563 83.503801 
L 39.501563 86.927437 
L 39.501563 97.799437 
L 39.501563 108.671437 
L 39.501563 119.543438 
L 39.501563 130.415437 
L 39.501563 141.287438 
L 39.501563 152.159437 
L 39.501563 155.583074 
z
" style="fill:#ffda00;"/>
   </g>
   <g id="PathCollection_7">
    <path clip-path="url(#p2227aeef33)" d="M 213.597563 167.184172 
L 226.989563 172.181482 
L 240.381563 173.903437 
L 253.773563 172.181482 
L 267.165563 167.184172 
L 274.310609 163.031438 
L 280.557563 159.006711 
L 288.991952 152.159437 
L 293.949563 147.087986 
L 299.064851 141.287438 
L 305.220478 130.415437 
L 307.341563 119.543438 
L 307.341563 119.543438 
L 307.341563 119.543437 
L 305.220478 108.671437 
L 299.064851 97.799437 
L 293.949563 91.998889 
L 288.991952 86.927437 
L 280.557563 80.080164 
L 274.310609 76.055437 
L 267.165563 71.902703 
L 253.773563 66.905393 
L 240.381563 65.183438 
L 226.989563 66.905393 
L 213.597563 71.902703 
L 206.452516 76.055437 
L 200.205563 80.080164 
L 191.771173 86.927437 
L 186.813563 91.998889 
L 181.698274 97.799437 
L 175.542647 108.671437 
L 173.421563 119.543438 
L 175.542647 130.415437 
L 181.698274 141.287438 
L 186.813563 147.087986 
L 191.771173 152.159437 
L 200.205563 159.006711 
L 206.452516 163.031438 
z
M 223.32742 152.159437 
L 213.597563 147.087986 
L 206.452516 141.287438 
L 200.205563 133.388467 
L 198.339608 130.415437 
L 195.988368 119.543438 
L 198.339608 108.671437 
L 200.205563 105.698408 
L 206.452516 97.799437 
L 213.597563 91.998889 
L 223.32742 86.927437 
L 226.989563 85.412603 
L 240.381563 83.503801 
L 253.773563 85.412603 
L 257.435705 86.927437 
L 267.165563 91.998889 
L 274.310609 97.799437 
L 280.557563 105.698408 
L 282.423517 108.671437 
L 284.774757 119.543438 
L 282.423517 130.415437 
L 280.557563 133.388467 
L 274.310609 141.287438 
L 267.165563 147.087986 
L 257.435705 152.159437 
L 253.773563 153.674272 
L 240.381563 155.583074 
L 226.989563 153.674272 
z
" style="fill:#ffff46;"/>
   </g>
   <g id="PathCollection_8">
    <path clip-path="url(#p2227aeef33)" d="M 226.989563 153.674272 
L 240.381563 155.583074 
L 253.773563 153.674272 
L 257.435705 152.159437 
L 267.165563 147.087986 
L 274.310609 141.287438 
L 280.557563 133.388467 
L 282.423517 130.415437 
L 284.774757 119.543438 
L 282.423517 108.671437 
L 280.557563 105.698408 
L 274.310609 97.799437 
L 267.165563 91.998889 
L 257.435705 86.927437 
L 253.773563 85.412603 
L 240.381563 83.503801 
L 226.989563 85.412603 
L 223.32742 86.927437 
L 213.597563 91.998889 
L 206.452516 97.799437 
L 200.205563 105.698408 
L 198.339608 108.671437 
L 195.988368 119.543438 
L 198.339608 130.415437 
L 200.205563 133.388467 
L 206.452516 141.287438 
L 213.597563 147.087986 
L 223.32742 152.159437 
z
" style="fill:#ffffc4;"/>
   </g>
   <g id="matplotlib.axis_1">
    <g id="xtick_1">
     <g id="line2d_1">
      <defs>
       <path d="M 0 0 
L 0 3.5 
" id="m6bbbdae33f" style="stroke:#000000;stroke-width:0.8;"/>
      </defs>
      <g>
       <use style="stroke:#000000;stroke-width:0.8;" x="39.501563" xlink:href="#m6bbbdae33f" y="228.263438"/>
      </g>
     </g>
     <g id="text_1">
      <text style="font-family:Liberation Sans;font-size:10px;font-stretch:normal;font-style:normal;font-weight:normal;text-anchor:middle;" transform="rotate(-0, 39.501563, 242.510312)" x="39.501563" y="242.510312">−1.00</text>
     </g>
    </g>
    <g id="xtick_2">
     <g id="line2d_2">
      <g>
       <use style="stroke:#000000;stroke-width:0.8;" x="72.981563" xlink:href="#m6bbbdae33f" y="228.263438"/>
      </g>
     </g>
     <g id="text_2">
      <text style="font-family:Liberation Sans;font-size:10px;font-stretch:normal;font-style:normal;font-weight:normal;text-anchor:middle;" transform="rotate(-0, 72.981563, 242.510312)" x="72.981563" y="242.510312">−0.75</text>
     </g>
    </g>
    <g id="xtick_3">
     <g id="line2d_3">
      <g>
       <use style="stroke:#000000;stroke-width:0.8;" x="106.461563" xlink:href="#m6bbbdae33f" y="228.263438"/>
      </g>
     </g>
     <g id="text_3">
      <text style="font-family:Liberation Sans;font-size:10px;font-stretch:normal;font-style:normal;font-weight:normal;text-anchor:middle;" transform="rotate(-0, 106.461563, 242.510312)" x="106.461563" y="242.510312">−0.50</text>
     </g>
    </g>
    <g id="xtick_4">
     <g id="line2d_4">
      <g>
       <use style="stroke:#000000;stroke-width:0.8;" x="139.941563" xlink:href="#m6bbbdae33f" y="228.263438"/>
      </g>
     </g>
     <g id="text_4">
      <text style="font-family:Liberation Sans;font-size:10px;font-stretch:normal;font-style:normal;font-weight:normal;text-anchor:middle;" transform="rotate(-0, 139.941563, 242.510312)" x="139.941563" y="242.510312">−0.25</text>
     </g>
    </g>
    <g id="xtick_5">
     <g id="line2d_5">
      <g>
       <use style="stroke:#000000;stroke-width:0.8;" x="173.421563" xlink:href="#m6bbbdae33f" y="228.263438"/>
      </g>
     </g>
     <g id="text_5">
      <text style="font-family:Liberation Sans;font-size:10px;font-stretch:normal;font-style:normal;font-weight:normal;text-anchor:middle;" transform="rotate(-0, 173.421563, 242.510312)" x="173.421563" y="242.510312">0.00</text>
     </g>
    </g>
    <g id="xtick_6">
     <g id="line2d_6">
      <g>
       <use style="stroke:#000000;stroke-width:0.8;" x="206.901563" xlink:href="#m6bbbdae33f" y="228.263438"/>
      </g>
     </g>
     <g id="text_6">
      <text style="font-family:Liberation Sans;font-size:10px;font-stretch:normal;font-style:normal;font-weight:normal;text-anchor:middle;" transform="rotate(-0, 206.901563, 242.510312)" x="206.901563" y="242.510312">0.25</text>
     </g>
    </g>
    <g id="xtick_7">
     <g id="line2d_7">
      <g>
       <use style="stroke:#000000;stroke-width:0.8;" x="240.381563" xlink:href="#m6bbbdae33f" y="228.263438"/>
      </g>
     </g>
     <g id="text_7">
      <text style="font-family:Liberation Sans;font-size:10px;font-stretch:normal;font-style:normal;font-weight:normal;text-anchor:middle;" transform="rotate(-0, 240.381563, 242.510312)" x="240.381563" y="242.510312">0.50</text>
     </g>
    </g>
    <g id="xtick_8">
     <g id="line2d_8">
      <g>
       <use style="stroke:#000000;stroke-width:0.8;" x="273.861563" xlink:href="#m6bbbdae33f" y="228.263438"/>
      </g>
     </g>
     <g id="text_8">
      <text style="font-family:Liberation Sans;font-size:10px;font-stretch:normal;font-style:normal;font-weight:normal;text-anchor:middle;" transform="rotate(-0, 273.861563, 242.510312)" x="273.861563" y="242.510312">0.75</text>
     </g>
    </g>
    <g id="xtick_9">
     <g id="line2d_9">
      <g>
       <use style="stroke:#000000;stroke-width:0.8;" x="307.341563" xlink:href="#m6bbbdae33f" y="228.263438"/>
      </g>
     </g>
     <g id="text_9">
      <text style="font-family:Liberation Sans;font-size:10px;font-stretch:normal;font-style:normal;font-weight:normal;text-anchor:middle;" transform="rotate(-0, 307.341563, 242.510312)" x="307.341563" y="242.510312">1.00</text>
     </g>
    </g>
   </g>
   <g id="matplotlib.axis_2">
    <g id="ytick_1">
     <g id="line2d_10">
      <defs>
       <path d="M 0 0 
L -3.5 0 
" id="mc0fa6e613e" style="stroke:#000000;stroke-width:0.8;"/>
      </defs>
      <g>
       <use style="stroke:#000000;stroke-width:0.8;" x="39.501563" xlink:href="#mc0fa6e613e" y="228.263438"/>
      </g>
     </g>
     <g id="text_10">
      <text style="font-family:Liberation Sans;font-size:10px;font-stretch:normal;font-style:normal;font-weight:normal;text-anchor:end;" transform="rotate(-0, 32.501563, 231.886875)" x="32.501563" y="231.886875">−1.00</text>
     </g>
    </g>
    <g id="ytick_2">
     <g id="line2d_11">
      <g>
       <use style="stroke:#000000;stroke-width:0.8;" x="39.501563" xlink:href="#mc0fa6e613e" y="201.083438"/>
      </g>
     </g>
     <g id="text_11">
      <text style="font-family:Liberation Sans;font-size:10px;font-stretch:normal;font-style:normal;font-weight:normal;text-anchor:end;" transform="rotate(-0, 32.501563, 204.706875)" x="32.501563" y="204.706875">−0.75</text>
     </g>
    </g>
    <g id="ytick_3">
     <g id="line2d_12">
      <g>
       <use style="stroke:#000000;stroke-width:0.8;" x="39.501563" xlink:href="#mc0fa6e613e" y="173.903437"/>
      </g>
     </g>
     <g id="text_12">
      <text style="font-family:Liberation Sans;font-size:10px;font-stretch:normal;font-style:normal;font-weight:normal;text-anchor:end;" transform="rotate(-0, 32.501563, 177.526875)" x="32.501563" y="177.526875">−0.50</text>
     </g>
    </g>
    <g id="ytick_4">
     <g id="line2d_13">
      <g>
       <use style="stroke:#000000;stroke-width:0.8;" x="39.501563" xlink:href="#mc0fa6e613e" y="146.723438"/>
      </g>
     </g>
     <g id="text_13">
      <text style="font-family:Liberation Sans;font-size:10px;font-stretch:normal;font-style:normal;font-weight:normal;text-anchor:end;" transform="rotate(-0, 32.501563, 150.346875)" x="32.501563" y="150.346875">−0.25</text>
     </g>
    </g>
    <g id="ytick_5">
     <g id="line2d_14">
      <g>
       <use style="stroke:#000000;stroke-width:0.8;" x="39.501563" xlink:href="#mc0fa6e613e" y="119.543438"/>
      </g>
     </g>
     <g id="text_14">
      <text style="font-family:Liberation Sans;font-size:10px;font-stretch:normal;font-style:normal;font-weight:normal;text-anchor:end;" transform="rotate(-0, 32.501563, 123.166875)" x="32.501563" y="123.166875">0.00</text>
     </g>
    </g>
    <g id="ytick_6">
     <g id="line2d_15">
      <g>
       <use style="stroke:#000000;stroke-width:0.8;" x="39.501563" xlink:href="#mc0fa6e613e" y="92.363438"/>
      </g>
     </g>
     <g id="text_15">
      <text style="font-family:Liberation Sans;font-size:10px;font-stretch:normal;font-style:normal;font-weight:normal;text-anchor:end;" transform="rotate(-0, 32.501563, 95.986875)" x="32.501563" y="95.986875">0.25</text>
     </g>
    </g>
    <g id="ytick_7">
     <g id="line2d_16">
      <g>
       <use style="stroke:#000000;stroke-width:0.8;" x="39.501563" xlink:href="#mc0fa6e613e" y="65.183438"/>
      </g>
     </g>
     <g id="text_16">
      <text style="font-family:Liberation Sans;font-size:10px;font-stretch:normal;font-style:normal;font-weight:normal;text-anchor:end;" transform="rotate(-0, 32.501563, 68.806875)" x="32.501563" y="68.806875">0.50</text>
     </g>
    </g>
    <g id="ytick_8">
     <g id="line2d_17">
      <g>
       <use style="stroke:#000000;stroke-width:0.8;" x="39.501563" xlink:href="#mc0fa6e613e" y="38.003438"/>
      </g>
     </g>
     <g id="text_17">
      <text style="font-family:Liberation Sans;font-size:10px;font-stretch:normal;font-style:normal;font-weight:normal;text-anchor:end;" transform="rotate(-0, 32.501563, 41.626875)" x="32.501563" y="41.626875">0.75</text>
     </g>
    </g>
    <g id="ytick_9">
     <g id="line2d_18">
      <g>
       <use style="stroke:#000000;stroke-width:0.8;" x="39.501563" xlink:href="#mc0fa6e613e" y="10.823438"/>
      </g>
     </g>
     <g id="text_18">
      <text style="font-family:Liberation Sans;font-size:10px;font-stretch:normal;font-style:normal;font-weight:normal;text-anchor:end;" transform="rotate(-0, 32.501563, 14.446875)" x="32.501563" y="14.446875">1.00</text>
     </g>
    </g>
   </g>
   <g id="patch_3">
    <path d="M 39.501563 228.263438 
L 39.501563 10.823438 
" style="fill:none;stroke:#000000;stroke-linecap:square;stroke-linejoin:miter;stroke-width:0.8;"/>
   </g>
   <g id="patch_4">
    <path d="M 307.341563 228.263438 
L 307.341563 10.823438 
" style="fill:none;stroke:#000000;stroke-linecap:square;stroke-linejoin:miter;stroke-width:0.8;"/>
   </g>
   <g id="patch_5">
    <path d="M 39.501563 228.263438 
L 307.341563 228.263438 
" style="fill:none;stroke:#000000;stroke-linecap:square;stroke-linejoin:miter;stroke-width:0.8;"/>
   </g>
   <g id="patch_6">
    <path d="M 39.501563 10.823438 
L 307.341563 10.823438 
" style="fill:none;stroke:#000000;stroke-linecap:square;stroke-linejoin:miter;stroke-width:0.8;"/>
   </g>
  </g>
  <g id="axes_2">
   <g id="patch_7">
    <path clip-path="url(#p54e9d2cf0d)" d="M 324.081563 228.263437 
L 324.081563 201.083437 
L 324.081563 38.003437 
L 324.081563 10.823437 
L 334.953563 10.823437 
L 334.953563 38.003437 
L 334.953563 201.083437 
L 334.953563 228.263437 
z
" style="fill:#ffffff;stroke:#ffffff;stroke-linejoin:miter;stroke-width:0.01;"/>
   </g>
   <g id="QuadMesh_1">
    <path clip-path="url(#p54e9d2cf0d)" d="M 324.081563 228.263437 
L 334.953563 228.263437 
L 334.953563 201.083437 
L 324.081563 201.083437 
L 324.081563 228.263437 
" style="fill:#350000;"/>
    <path clip-path="url(#p54e9d2cf0d)" d="M 324.081563 201.083437 
L 334.953563 201.083437 
L 334.953563 173.903437 
L 324.081563 173.903437 
L 324.081563 201.083437 
" style="fill:#890000;"/>
    <path clip-path="url(#p54e9d2cf0d)" d="M 324.081563 173.903437 
L 334.953563 173.903437 
L 334.953563 146.723437 
L 324.081563 146.723437 
L 324.081563 173.903437 
" style="fill:#dd0000;"/>
    <path clip-path="url(#p54e9d2cf0d)" d="M 324.081563 146.723437 
L 334.953563 146.723437 
L 334.953563 119.543437 
L 324.081563 119.543437 
L 324.081563 146.723437 
" style="fill:#ff3200;"/>
    <path clip-path="url(#p54e9d2cf0d)" d="M 324.081563 119.543437 
L 334.953563 119.543437 
L 334.953563 92.363437 
L 324.081563 92.363437 
L 324.081563 119.543437 
" style="fill:#ff8600;"/>
    <path clip-path="url(#p54e9d2cf0d)" d="M 324.081563 92.363437 
L 334.953563 92.363437 
L 334.953563 65.183437 
L 324.081563 65.183437 
L 324.081563 92.363437 
" style="fill:#ffda00;"/>
    <path clip-path="url(#p54e9d2cf0d)" d="M 324.081563 65.183437 
L 334.953563 65.183437 
L 334.953563 38.003437 
L 324.081563 38.003437 
L 324.081563 65.183437 
" style="fill:#ffff46;"/>
    <path clip-path="url(#p54e9d2cf0d)" d="M 324.081563 38.003437 
L 334.953563 38.003437 
L 334.953563 10.823437 
L 324.081563 10.823437 
L 324.081563 38.003437 
" style="fill:#ffffc4;"/>
   </g>
   <g id="matplotlib.axis_3"/>
   <g id="matplotlib.axis_4">
    <g id="ytick_10">
     <g id="line2d_19">
      <defs>
       <path d="M 0 0 
L 3.5 0 
" id="m1f31b86bff" style="stroke:#000000;stroke-width:0.8;"/>
      </defs>
      <g>
       <use style="stroke:#000000;stroke-width:0.8;" x="334.953563" xlink:href="#m1f31b86bff" y="228.263437"/>
      </g>
     </g>
     <g id="text_19">
      <text style="font-family:Liberation Sans;font-size:10px;font-stretch:normal;font-style:normal;font-weight:normal;text-anchor:start;" transform="rotate(-0, 341.953563, 231.886875)" x="341.953563" y="231.886875">−2.0</text>
     </g>
    </g>
    <g id="ytick_11">
     <g id="line2d_20">
      <g>
       <use style="stroke:#000000;stroke-width:0.8;" x="334.953563" xlink:href="#m1f31b86bff" y="201.083437"/>
      </g>
     </g>
     <g id="text_20">
      <text style="font-family:Liberation Sans;font-size:10px;font-stretch:normal;font-style:normal;font-weight:normal;text-anchor:start;" transform="rotate(-0, 341.953563, 204.706875)" x="341.953563" y="204.706875">−1.5</text>
     </g>
    </g>
    <g id="ytick_12">
     <g id="line2d_21">
      <g>
       <use style="stroke:#000000;stroke-width:0.8;" x="334.953563" xlink:href="#m1f31b86bff" y="173.903437"/>
      </g>
     </g>
     <g id="text_21">
      <text style="font-family:Liberation Sans;font-size:10px;font-stretch:normal;font-style:normal;font-weight:normal;text-anchor:start;" transform="rotate(-0, 341.953563, 177.526875)" x="341.953563" y="177.526875">−1.0</text>
     </g>
    </g>
    <g id="ytick_13">
     <g id="line2d_22">
      <g>
       <use style="stroke:#000000;stroke-width:0.8;" x="334.953563" xlink:href="#m1f31b86bff" y="146.723437"/>
      </g>
     </g>
     <g id="text_22">
      <text style="font-family:Liberation Sans;font-size:10px;font-stretch:normal;font-style:normal;font-weight:normal;text-anchor:start;" transform="rotate(-0, 341.953563, 150.346875)" x="341.953563" y="150.346875">−0.5</text>
     </g>
    </g>
    <g id="ytick_14">
     <g id="line2d_23">
      <g>
       <use style="stroke:#000000;stroke-width:0.8;" x="334.953563" xlink:href="#m1f31b86bff" y="119.543437"/>
      </g>
     </g>
     <g id="text_23">
      <text style="font-family:Liberation Sans;font-size:10px;font-stretch:normal;font-style:normal;font-weight:normal;text-anchor:start;" transform="rotate(-0, 341.953563, 123.166875)" x="341.953563" y="123.166875">0.0</text>
     </g>
    </g>
    <g id="ytick_15">
     <g id="line2d_24">
      <g>
       <use style="stroke:#000000;stroke-width:0.8;" x="334.953563" xlink:href="#m1f31b86bff" y="92.363437"/>
      </g>
     </g>
     <g id="text_24">
      <text style="font-family:Liberation Sans;font-size:10px;font-stretch:normal;font-style:normal;font-weight:normal;text-anchor:start;" transform="rotate(-0, 341.953563, 95.986875)" x="341.953563" y="95.986875">0.5</text>
     </g>
    </g>
    <g id="ytick_16">
     <g id="line2d_25">
      <g>
       <use style="stroke:#000000;stroke-width:0.8;" x="334.953563" xlink:href="#m1f31b86bff" y="65.183437"/>
      </g>
     </g>
     <g id="text_25">
      <text style="font-family:Liberation Sans;font-size:10px;font-stretch:normal;font-style:normal;font-weight:normal;text-anchor:start;" transform="rotate(-0, 341.953563, 68.806875)" x="341.953563" y="68.806875">1.0</text>
     </g>
    </g>
    <g id="ytick_17">
     <g id="line2d_26">
      <g>
       <use style="stroke:#000000;stroke-width:0.8;" x="334.953563" xlink:href="#m1f31b86bff" y="38.003437"/>
      </g>
     </g>
     <g id="text_26">
      <text style="font-family:Liberation Sans;font-size:10px;font-stretch:normal;font-style:normal;font-weight:normal;text-anchor:start;" transform="rotate(-0, 341.953563, 41.626875)" x="341.953563" y="41.626875">1.5</text>
     </g>
    </g>
    <g id="ytick_18">
     <g id="line2d_27">
      <g>
       <use style="stroke:#000000;stroke-width:0.8;" x="334.953563" xlink:href="#m1f31b86bff" y="10.823437"/>
      </g>
     </g>
     <g id="text_27">
      <text style="font-family:Liberation Sans;font-size:10px;font-stretch:normal;font-style:normal;font-weight:normal;text-anchor:start;" transform="rotate(-0, 341.953563, 14.446875)" x="341.953563" y="14.446875">2.0</text>
     </g>
    </g>
   </g>
   <g id="patch_8">
    <path d="M 324.081563 228.263437 
L 324.081563 201.083437 
L 324.081563 38.003437 
L 324.081563 10.823437 
L 334.953563 10.823437 
L 334.953563 38.003437 
L 334.953563 201.083437 
L 334.953563 228.263437 
z
" style="fill:none;stroke:#000000;stroke-linejoin:miter;stroke-width:0.8;"/>
   </g>
  </g>
 </g>
 <defs>
  <clipPath id="p2227aeef33">
   <rect height="217.44" width="267.84" x="39.501563" y="10.823438"/>
  </clipPath>
  <clipPath id="p54e9d2cf0d">
   <rect height="217.44" width="10.872" x="324.081563" y="10.823438"/>
  </clipPath>
 </defs>
</svg>
